<?xml version="1.0" encoding="utf-8"?>
<!-- Generator: Adobe Illustrator 23.0.3, SVG Export Plug-In . SVG Version: 6.00 Build 0)  -->
<svg version="1.1" xmlns="http://www.w3.org/2000/svg" xmlns:xlink="http://www.w3.org/1999/xlink" x="0px" y="0px"
	 width="1423.5px" height="1142.5px" viewBox="0 0 1423.5 1142.5" style="enable-background:new 0 0 1423.5 1142.5;"
	 xml:space="preserve">
<style type="text/css">
	.st0{fill:#F5F9FA;}
	.st1{fill:#A15842;}
	.st2{fill:#30242A;}
	.st3{fill:#FFCFC9;}
	.st4{fill:none;stroke:#EAA58B;stroke-width:4;stroke-linecap:round;stroke-miterlimit:10;}
	.st5{fill:none;stroke:#A15842;stroke-width:4;stroke-linecap:round;stroke-miterlimit:10;}
	.st6{fill:#F5EBDD;}
	.st7{fill:none;stroke:#30242A;stroke-width:4;stroke-linecap:round;stroke-miterlimit:10;}
	.st8{fill:#A03C8B;}
	.st9{fill:#454988;}
	.st10{fill:#FFB7D5;}
	.st11{fill:#FFBE21;}
	.st12{fill:none;stroke:#A15842;stroke-width:4;stroke-linecap:round;stroke-linejoin:round;}
	.st13{fill:#FF7235;}
	.st14{fill:none;stroke:#2F335B;stroke-width:4;stroke-linecap:round;stroke-miterlimit:10;}
	.st15{fill:#7394DD;}
	.st16{fill:none;stroke:#30242A;stroke-width:4;stroke-linecap:round;stroke-linejoin:round;}
	.st17{fill:none;stroke:#DF5646;stroke-width:4;stroke-linecap:round;stroke-miterlimit:10;}
	.st18{fill:none;stroke:#A15842;stroke-width:4;stroke-miterlimit:10;}
	.st19{fill:#3EC1F3;}
	.st20{fill:#4756DF;}
	.st21{fill:none;stroke:#4756DF;stroke-width:4;stroke-miterlimit:10;}
	.st22{fill:none;stroke:#4756DF;stroke-width:4;stroke-linecap:round;stroke-miterlimit:10;}
	.st23{fill:none;stroke:#30242A;stroke-width:4;stroke-miterlimit:10;}
	.st24{fill:#EAA58B;}
	.st25{fill:#4856DF;}
	.st26{fill:#DF5646;}
	.st27{fill:#78ADD9;}
	.st28{fill:none;stroke:#30242A;stroke-width:2;stroke-miterlimit:10;}
</style>
<g id="blob">
	<path class="st0" d="M692.8,980.4c50-5.5,186.5,5.7,223,13.6c36.5,7.9,157.6,25.2,215.3-20.9c57.7-46.1,21.1-207.6,30.8-261.5
		s121.5-131.5,123.3-230.1c1.7-98.6,1.7-210.1-125.2-256.3s-271.1,48.1-359.5,17.3s-221.1-105.7-307.6-71.1s-188.4,190.1-94.2,342.1
		S494.8,725,460.1,800S415.9,1010.8,692.8,980.4z"/>
</g>
<g id="woman">
	<g id="woman_1_">
		<g id="head">
			<path class="st1" d="M663.4,310.7c-14-2-46.1,13-47.1,42.8s25.5,39.3,29.8,41.4l61.6-9.6l4.3-68L663.4,310.7z"/>
			<circle class="st1" cx="772.3" cy="188.9" r="47.9"/>
			<path class="st2" d="M741.2,221.8c2.9,1.4-21.7-57-34.2-47.9C695.2,182.5,726.4,215,741.2,221.8z"/>
			<path class="st2" d="M742.6,225.4c2.7,3.2,65.4-18.8,56.7-31.4C791,181.8,739.9,222.2,742.6,225.4z"/>
			<path class="st3" d="M785.1,295.4c-5.1,0.6-8.4,1.3-8.4,1.3v0C777.1,296.6,780.3,296,785.1,295.4z"/>
			<path class="st3" d="M756.9,284.6c3.8,20.1-28.3,29.1-28.3,29.1s-0.8,9.2,0.5,20c-15.2,10.2-30.7,16.5-30.7,16.5
				c-0.7,0.2-1.4,0.5-2.1,0.8l0.1-2.2c0,0-15,4-27.8-2.6c-14.1-7.3-17.1-22.8-12.5-45.6s1.1-54.8,14.8-71.9
				c5-6.3,13.3-11.8,23.2-15.2c-9.9,3.4-18.1,8.9-23.1,15.2c-5.6,7-8.3,16.4-9.9,26.7c9.1,1.5,22.5-1.6,22.5-1.6
				c18.3,20.5,34.6,23.8,34.6,23.8C730.8,264.8,753.2,265.3,756.9,284.6z"/>
			<path class="st1" d="M840.9,311.7c-17.3-24.9-64.2-15-64.2-15c1.1-13.7,4.9-53.1-24.8-74.8s-67.3-10.3-81,6.8
				c-5.6,7-8.3,16.4-9.9,26.7c9.1,1.5,22.5-1.6,22.5-1.6c18.3,20.5,34.6,23.8,34.6,23.8c12.8-12.8,35.2-12.4,38.8,7
				c3.8,20.1-28.3,29.1-28.3,29.1s-0.8,9,0.5,19.7c0.4,3.6,1.1,7.3,2,11C734,357,740,373,754,378c22,7,40.6,3.3,60.3,15.3
				c2.4,1.2,9.2-8.8,11.6-7.4c3.7-3.2,7-6.8,10-10.7C846.3,361.9,858.9,337.7,840.9,311.7z"/>
			<path class="st4" d="M702.5,246.5c-6,5-13,8-21.1,10"/>
			<path class="st5" d="M696.1,351.1c4.7-1.6,9.1-3.6,13.4-6"/>
			<line class="st5" x1="729.8" y1="293.6" x2="738.9" y2="287.9"/>
			<path class="st5" d="M677.5,320.3c1.9,1.2,9,2.1,11.8-3.4"/>
			<circle class="st2" cx="696" cy="291.3" r="3.4"/>
			<circle class="st2" cx="667.7" cy="286.7" r="3.4"/>
			<path class="st5" d="M677.3,299.9c-0.7,2.1-1.3,4.5-0.9,5.3c0.5,1,1.3,1.8,2.3,2.3"/>
			<circle class="st6" cx="734.1" cy="315.1" r="12"/>
			
				<ellipse transform="matrix(0.191 -0.9816 0.9816 0.191 253.198 877.7371)" class="st7" cx="659.1" cy="285.3" rx="19.7" ry="17.7"/>
			
				<ellipse transform="matrix(0.191 -0.9816 0.9816 0.191 283.1203 924.6975)" class="st7" cx="702.5" cy="290.6" rx="19.7" ry="17.7"/>
			<line class="st7" x1="677.3" y1="287" x2="684.2" y2="287.8"/>
			<line class="st7" x1="779" y1="298" x2="777" y2="310.8"/>
			<path class="st8" d="M776.7,296.7C776.7,296.7,776.7,296.7,776.7,296.7c1.1-13.7,4.8-53.1-24.9-74.8
				c-9.4-6.9-19.6-10.4-29.6-11.5c10,1.1,20.3,4.6,29.7,11.5C781.6,243.5,777.8,283,776.7,296.7z"/>
			<path class="st8" d="M848.1,352.2c3.4-11.9,2.9-25.9-7.2-40.5c-7.5-10.8-20.6-15.1-33-16.4c12.4,1.3,25.6,5.6,33.1,16.4
				C851,326.3,851.5,340.3,848.1,352.2z"/>
		</g>
		<g id="foot">
			<path class="st9" d="M622.1,732.2l-59,38.5C542,788.8,545,819.9,540,866c-3.8,35.7-28.1,67.2-28.1,67.2l-3.3-1.5l-11.7-5.5
				l-92.2-43c7.2-21.8,14.8-49.5,26-83.3c17.6-53.3,26.1-84.1,37.8-105.3l137.6,31.1L622.1,732.2z"/>
			<path class="st2" d="M339,951.5c2.6-5.4,17.1-38.5,25.5-34.5c10.9,5.2-17.3,38.4-17.3,38.4L339,951.5z"/>
			<path class="st2" d="M302.4,971.8l131.8,62.5c3.3,1.6,7.2,0.2,8.7-3.1c1.5-3.1,0.3-6.8-2.6-8.5l-2.8-1.6l0.3-0.3l-90.6-42.8
				c1.4-3.8,2.3-7.7,2.8-11.6c13.6,2.3,41,4.9,41.1-6.4c0.1-10.5-29.8-6.3-40.8-3.3c-0.2-4.1-1-8.1-2.3-11.9
				C317.8,946.9,307.5,957.5,302.4,971.8z"/>
			<polygon class="st10" points="526,717.6 508.3,740.8 483.2,728.7 498.1,753.9 474.8,773.4 504.6,769.7 514.8,804.1 525.1,769.7 
				557.6,760.4 526,747.3 			"/>
			<path class="st10" d="M425.9,893.2l2.3-6.7l32-1.7l-26-17.7l11.6-27.7l-26.2,17.5l-5-5.4c-4,13.2-7.5,24.9-11,35.2h0.2
				c0.4-1.1,0.8-2.3,1.1-3.4L425.9,893.2z"/>
			<path class="st3" d="M425.9,893.2l-21-9.9c-0.4,1.2-0.8,2.3-1.1,3.4c-12.7,37.8-24.3,56.7-51.7,57.9c-1.4,0-2.6,0.1-3.9,0.2
				c1.3,3.8,2.1,7.8,2.3,11.9c11-3,40.9-7.2,40.8,3.3c-0.2,11.3-27.6,8.8-41.1,6.4c-0.5,4-1.5,7.9-2.9,11.6l90.6,42.8
				c12.3-15,35.8-46.5,59.1-94.1L425.9,893.2z"/>
			<path class="st10" d="M505.9,817.1l-3,27.1l-28.1-1l24.1,18.1l-9,32.1l24.1-21.1l21.7,14.4c0.6-1.9,1.2-3.8,1.7-5.8l-8.3-20.7
				l12.9-14.1c0.2-2.6,0.4-5.2,0.6-7.7l-22.5,3.8L505.9,817.1z"/>
			<path class="st10" d="M443.4,760.8c-2.5,7.8-5.3,16.3-8.3,25.5l26.7,1.6L443.4,760.8z"/>
		</g>
		<g id="other">
			<path class="st9" d="M808.8,610.5L622.1,732.2l-15.9-6.6l-137.6-31.1c11.1-20,25.1-31.4,52.4-45.1c34.1-17,114.3-38.9,114.3-38.9
				L808.8,610.5z"/>
			<title>wfh_1</title>
			<path class="st10" d="M842.5,791.4H588.2l4.3-17.1h111.6l42.6-166.5c11.9-46.7,54-79.3,102.1-79.3l0,0c57.3,0,99.2,54,85,109.5
				l-26.3,102.9C899.9,770.6,873.1,791.4,842.5,791.4z"/>
			<rect x="590.1" y="949" class="st1" width="162.1" height="18.1"/>
			<path class="st1" d="M778.9,1032.3l-42.2-251H605.6l-42.2,251c-0.8,4.5,2.3,8.8,6.8,9.6c0.5,0.1,0.9,0.1,1.4,0.1l0,0
				c3.9,0,7.3-2.7,8.1-6.6L635,781.3h72.4l55.2,254.1c0.8,3.8,4.2,6.6,8.1,6.6l0,0c4.6,0,8.3-3.7,8.3-8.3
				C779,1033.2,779,1032.7,778.9,1032.3z"/>
			<rect x="724.4" y="949" class="st11" width="162.1" height="18.1"/>
			<path class="st11" d="M913.2,1032.3l-42.2-251H739.9l-42.2,251c-0.8,4.5,2.3,8.8,6.8,9.6c0.5,0.1,0.9,0.1,1.4,0.1l0,0
				c3.9,0,7.3-2.7,8.1-6.6l55.2-254.1h72.4l55.2,254.1c0.8,3.8,4.2,6.6,8.1,6.6l0,0c4.6,0,8.3-3.7,8.3-8.3
				C913.3,1033.2,913.3,1032.7,913.2,1032.3z"/>
			<path class="st10" d="M780.7,740.9l16.1-62.9H690.2c-43,0-80.5,29.1-91.2,70.8l-10.9,42.6h127.5
				C746.4,791.4,773.1,770.6,780.7,740.9z"/>
			<line class="st12" x1="595.1" y1="772.7" x2="730.4" y2="772.7"/>
			<line class="st12" x1="704.6" y1="772" x2="728.3" y2="679.3"/>
			<line class="st12" x1="922" y1="675.8" x2="858" y2="675.8"/>
			<line class="st12" x1="934" y1="630.8" x2="852" y2="630.8"/>
			<path class="st10" d="M521,649.4c-6.3,3.2-11.9,6.2-16.9,9.2l-7.7,24.6l29.6-20.8l27.3,21.8l-10.1-29.8l30.9-14.2l-23.9-3
				C540.3,640.8,530.5,644.8,521,649.4z"/>
			<polygon class="st10" points="608.2,636.6 606.2,649.6 619.3,644.6 			"/>
			<path class="st2" d="M537.6,1005.1c0.4-6,1.7-42.1,11-41.5c12,0.8-2,42.1-2,42.1L537.6,1005.1z"/>
			<path class="st13" d="M511.6,1041.9h150.5c-0.4,0.1-0.7,0.1-1.1,0.1H511.7C511.7,1042,511.6,1042,511.6,1041.9z"/>
			<path class="st9" d="M751.3,774.5h-89.9c6,28.1,16.1,35.1,27.1,76.2c10.5,39.2,1,83.2,1,83.2h-14v0H570.2
				c-2-25.6-7.2-59.6-11.1-103.3c-10-112.3-10.6-153.7,45.1-177c55.2-23.1,155.5-41.7,155.5-41.7l85.3,0c0,0,6.8,11.1,11.4,32
				C871.3,711,819.9,774.5,751.3,774.5z"/>
			<polygon class="st10" points="697.5,670.7 679.1,693.9 650.4,684 667.4,711.8 645.3,741.9 674.4,729.9 690.6,759.8 692.5,726.9 
				720.5,720.8 696.5,705.8 			"/>
			<path class="st10" d="M657.4,849.5l17,27.8l-22.1,30.1l29.1-12l10.8,19.9c1.6-15.4,2.4-38.3-2.7-60.2l-3.4,4.3L657.4,849.5z"/>
			<path class="st10" d="M582.5,933.9l-1.3-15.5l32.6-12.6l-30.8-6.4l3.4-33.8l-20,26.2l-0.6-0.3c1.9,16.2,3.6,30.3,4.5,42.5v-0.1
				L582.5,933.9z"/>
			<path class="st3" d="M661,1029.2h-2.5c4.7-15.4,11.5-45.5,12.5-95.3H570.2v0.1c0.1,1,0.2,2,0.2,3c0,0.1,0,0.2,0,0.3
				c2.1,31.3-1.3,49.5-19.4,57.7c-30.3,13.8-40.9,31.1-39.4,46.9H661c3.5,0,6.4-2.9,6.4-6.4C667.4,1032,664.5,1029.1,661,1029.2
				L661,1029.2z"/>
			<polygon class="st10" points="794.7,614.6 748.7,618.7 753.5,637.2 724,652.9 760.7,657.8 773.1,685.3 785.9,656.8 823.2,650.9 
				790.8,634.2 			"/>
			<path class="st10" d="M575.1,744.9l11-35.1l32.1,5l-25.1-22.1l18-21.1l-33.1,12l-5.3-9.1c-8.5,9.6-13.7,21.6-16.4,37l5.6,0.2
				L575.1,744.9z"/>
			<path class="st10" d="M661,634.8c-6.8,1.9-13.5,3.8-20.1,5.9l26.5,18L661,634.8z"/>
			<polygon class="st10" points="617.3,797.1 603.2,768 596.2,800.1 570.1,798.1 594.2,819.1 579.2,854.2 605.3,829.9 626.9,854.8 
				620.3,817.1 642.3,788 			"/>
			<path class="st2" d="M557.7,1017.5c13.3-3.7,39.1-13.1,34.5-23.4c-4.4-9.6-29.7,7-38.3,14.4c-2.2-4-5-7.6-8.3-10.8
				c-26.2,13.3-35.4,29.5-34,44.3H661c3.5,0,6.4-2.9,6.4-6.4l0,0l0,0c0-3.5-2.9-6.4-6.4-6.4l0,0H560.1
				C559.7,1025.2,558.9,1021.3,557.7,1017.5z"/>
			<line class="st14" x1="661" y1="776.7" x2="635.2" y2="776.3"/>
			<path class="st14" d="M680.2,630.4c-26.8,6.8-55.3,15.2-77,24.2C557,674,549.5,705.8,554,780.2"/>
			<path class="st3" d="M844.9,610.5l-35.1-62.2c6.1-55.1,16.1-162.5,16.1-162.5s0.4-0.3,1-0.9c0,0,0,0-0.1,0c-0.3,0.3-0.7,0.6-1,1
				c-9.3-5.7-19.5-9.7-30.1-12c-12.1-2.7-25.3-1.1-37.3-3.5c-6.2-1.1-12-3.7-16.9-7.6c-12-9.8-13.3-32.4-13.2-43.2
				c-4.6-0.1-9.1-0.4-13.7-0.7c-0.2,0-0.3,0-0.5,0c0,0,0,0-0.1,0c-2.7,1.4-5.5,2.7-8.6,4c-2.3,3.1-4.5,6.2-6.9,9.2
				c-2,2.6-4.3,4.9-6.6,7.3c-1.6,3.9-4,7.4-7.1,10.5c0,0,0,0,0,0c6.6,0.1,11.4-1.2,11.4-1.2l-1.6,24.1c0,0-29,1.1-46.8,7.5
				c-42.8,15.5-118,121.8-118,121.8c-47.1-2-91.3-4-91.3-4l23.1,68.2c0,0,58.2,19,100.3,8c42.7-11.2,83.2-71.2,83.2-71.2l14,40.1
				l-24.1,67.2H844.9z"/>
			<path class="st15" d="M758.5,370.4l-55,99.7L681,373.9c-9.9,1-23.1,2.9-32.8,6.5C605.2,395.9,530,502.2,530,502.2
				c-47.1-2-91.3-4-91.3-4l23.1,68.2c0,0,58.2,19,100.3,8c42.7-11.2,83.2-71.2,83.2-71.2l14,40.1l-24.1,67.2h209.6l-35.1-62.2
				c6-55.2,16-162.5,16-162.5c-9.3-5.7-19.5-9.7-30.1-12C783.7,371.2,770.5,372.8,758.5,370.4z"/>
			<path class="st2" d="M473.7,603.5h173.7l-39.5-124.7c-2.4-7.5-9.4-12.7-17.3-12.7H443.8c-10,0-18.1,8.1-18.1,18.1
				c0,1.9,0.3,3.7,0.9,5.5l32.6,103.1C461.1,599.2,467,603.5,473.7,603.5z"/>
			<path class="st1" d="M499.5,522.5c4.6-6.3,25.5,10.3,27.1,11.7c0.8-1.4,11.7-18,19.7-11.7c6.9,5.5-8.3,29.8-12.3,36.1
				c-0.7,0.7-1.8,0.8-2.6,0.1c0,0-0.1-0.1-0.1-0.1C523.8,552.4,495.5,528,499.5,522.5z"/>
			
				<ellipse transform="matrix(0.9548 -0.2974 0.2974 0.9548 -130.1592 178.585)" class="st1" cx="521.9" cy="517.1" rx="3.3" ry="10.1"/>
			<path class="st2" d="M748.2,589.5c1.8,5.7-1.4,11.7-7.1,13.5c-1,0.3-2.1,0.5-3.2,0.5H473.7c-6.6,0-12.5-4.3-14.5-10.6l-1.1-3.4
				L748.2,589.5z"/>
			<path class="st10" d="M907.5,740.9l16.1-62.9h-93.8c-43,0-80.5,29.1-91.2,70.8l-10.9,42.6h114.8
				C873.1,791.4,899.9,770.6,907.5,740.9z"/>
			<line class="st12" x1="729.9" y1="774.9" x2="726.2" y2="790.6"/>
			<path class="st3" d="M430.4,501.8c-11.7,5.8-17.5,15.6-17.5,22.4c0,9.9,10.1,11.8,10.1,11.8s-7.5,11.9,5.6,17.4
				c0,0,0,12.2,12.2,12.2c0,0-1.6,9.5,11.1,10.4s25.9-5.8,27-10.1c1.3-5.1-2.2-9.3-11.4-10.7c0,0,12.5-5.8,10.5-13.2
				s-10.4-7.2-10.4-7.2s8.1-4.8,3.8-12s-12.6-4.7-12.6-4.7s2.2-5-1.6-8.8c-4.5-4.5-23.8,1.2-23.8,1.2L430.4,501.8z"/>
			<path class="st5" d="M440.9,566.1c10.5-2.5,20.7-6.2,30.5-11"/>
			<path class="st5" d="M428.5,553.4c14.6-4,28.5-10.1,41.4-18.1"/>
			<path class="st5" d="M422,537.4c13.5-4,26.3-10.2,37.8-18.3"/>
			<line class="st16" x1="634.3" y1="477.1" x2="644" y2="505.3"/>
			<line class="st16" x1="685.5" y1="541.3" x2="660" y2="541.3"/>
			<polyline class="st16" points="705.5,469.1 713.5,508.2 713.5,544.3 			"/>
			<polyline class="st16" points="652.2,379.5 667.4,414 649.3,412 713.5,508.2 			"/>
			<polyline class="st16" points="800.6,375.4 774.7,412 798.8,410 710.5,488.2 			"/>
			<line class="st16" x1="814" y1="498" x2="794.8" y2="471.1"/>
			<path class="st16" d="M836.3,597c-10.5-3.5-29.3-10.2-40.6-17"/>
			<path class="st3" d="M795.8,514.7c-12.3-1.1-24.7-1.2-37.1-0.4c-17.7,1.5-41.5,6.1-51,10.7s-46.1,20.9-36.3,26.4
				c9,5,27.9-2.5,27.9-2.5s-18.8,17.3-22.1,24.6s7.5,11.3,7.5,11.3c2.8,12.4,15.4,7.1,15.4,7.1c8,16.9,50.9-19.7,50.9-19.7
				c10.2,1.1,20.5,0.6,30.6-1.3c0,0,5.4,3,14.2,7.3L795.8,514.7z"/>
			<path class="st15" d="M903.1,599.5c80.2-38.1-36.1-180.5-77.2-213.6l-23.1,93.3l29.1,40.1c-12.7-2.2-24.9-3.7-36.1-4.6v63.4
				C821.2,590.4,874.7,613,903.1,599.5z"/>
			<path class="st5" d="M695.4,549.9c7.1-5.9,18.9-15.4,27.8-21.2"/>
			<path class="st5" d="M732.9,542.8c-20.5,13.3-39.2,31-48.4,40.3"/>
			<path class="st5" d="M742,557.8c-14,9.6-30.3,24.2-40.9,34.2"/>
		</g>
	</g>
</g>
<g id="floor">
	<line id="floor_1_" class="st17" x1="148.2" y1="1042" x2="1330.5" y2="1042"/>
</g>
<g id="table">
	<g id="table_1_">
		<rect x="330.1" y="624.6" class="st11" width="24.6" height="417.4"/>
		<line class="st18" x1="354.7" y1="630.3" x2="330.1" y2="630.3"/>
		<rect x="995.1" y="624.6" class="st11" width="24.6" height="417.4"/>
		<line class="st18" x1="1019.7" y1="630.3" x2="995.1" y2="630.3"/>
		<rect x="287.8" y="603.5" class="st11" width="774.2" height="25.1"/>
		<path class="st19" d="M982.7,552.4c3.2,0,5.7,2.6,5.7,5.7v0.9c0,3.2-2.6,5.7-5.7,5.7h-29.5v-12.3H982.7 M982.7,544.4h-36.4
			c-0.6,0-1.1,0.5-1.1,1.1c0,0,0,0,0,0v26.2c0,0.6,0.5,1.1,1.1,1.1h36.4c7.6,0,13.7-6.1,13.7-13.7c0,0,0,0,0,0v-0.9
			C996.4,550.5,990.3,544.4,982.7,544.4L982.7,544.4z"/>
		<path class="st19" d="M938.7,540.1c-29.8,0-43.6-23.8-43.6-23.8l20,87.1h47.1l20-87.1C972.8,531.3,956.3,540.2,938.7,540.1z"/>
		<path class="st2" d="M938.7,540.1c17.6,0.1,34.1-8.8,43.6-23.8h-87.1C895.1,516.4,908.9,540.1,938.7,540.1z"/>
	</g>
</g>
<g id="lamp">
	<g id="lamp_1_">
		<circle class="st10" cx="547.5" cy="328.5" r="19.7"/>
		<path class="st20" d="M477.2,236.4l11.5,13.8c1.8,2.1,1.5,5.3-0.7,7l-0.2,0.2c-2.1,1.8-5.3,1.5-7-0.7L469.3,243
			c-1.8-2.1-1.5-5.3,0.7-7l0.2-0.2C472.3,234,475.4,234.3,477.2,236.4z"/>
		<path class="st19" d="M509.3,267l-11.5-13.9L290.7,424.8c-3.8,3.1-4.3,8.7-1.2,12.5l0.2,0.3c3.1,3.8,8.7,4.3,12.4,1.2c0,0,0,0,0,0
			l64.7-53.7v188.4H385V370L509.3,267z"/>
		<path class="st21" d="M475.9,271l5.8,7c2,2.4,3.5,5.2,4.5,8.2"/>
		<circle class="st20" cx="376" cy="365.6" r="23.6"/>
		<circle class="st19" cx="376" cy="365.6" r="9.1"/>
		<line class="st18" x1="563.6" y1="317.3" x2="533.5" y2="342.3"/>
		<path class="st19" d="M524.5,264.5c-6.3-0.7-12.1-3.9-16.2-8.8l-8-9.7c-5.9-7.1-16.4-8.1-23.5-2.2l0,0c-7.1,5.9-8.1,16.4-2.2,23.5
			c0,0,0,0,0,0l8,9.7c4.1,4.9,6.1,11.2,5.6,17.5l-2,29.2c-1,14.3,2.6,28.6,10.4,40.6l2.6,4l95.9-79.6l-3.4-3.2
			c-10.4-9.8-23.8-16-38-17.7L524.5,264.5z"/>
		<path class="st19" d="M385,573.4h-18.1l-26.7,7.3c-10.3,2.8-17.4,12.1-17.4,22.8h106.3c0-10.7-7.1-20-17.4-22.8L385,573.4z"/>
		<line class="st22" x1="576.9" y1="274.7" x2="489.1" y2="347.2"/>
		<line class="st22" x1="366.5" y1="571.4" x2="385" y2="571.4"/>
		<line class="st22" x1="326.3" y1="591" x2="425" y2="591"/>
	</g>
</g>
<g id="dog">
	<g id="dog_1_">
		<path class="st2" d="M895.1,861.5c2-17,1-55.2-21.1-84.2s8-17,17-9c14.4,12.8,27.1,25.1,38.1,66.2L895.1,861.5z"/>
		<path class="st1" d="M1161.4,1042h117.7v-3.8c0-11.3-9.2-20.5-20.5-20.5h-97.9L1161.4,1042z"/>
		<path class="st1" d="M874.2,929.6l24.8,112.4h46.1v-7c0-9.4-7.6-17-17-17l0,0c0,0,23.1-17.3,37.1-34.3c0,0,24.1,29.3,58.2,24.3
			l2.5,12c2.6,12.8,13.9,22.1,27.1,22.1h111.8c49.6,0,74-7.6,75.4-35.8c0.2-4.4-3.3-8.1-7.7-8.3c-0.1,0-0.2,0-0.3,0H1201
			c-2.6,0-5.1-1.2-6.7-3.2l-13.3-16.5c-8-10-21.2-14.3-33.6-11.2l-26.7,6.8c0,0-47.4-68.1-90.3-115.3c-41-45.1-118.1-50-148.5,8.8
			C872.2,886.5,869.5,908.6,874.2,929.6z"/>
		<path class="st23" d="M1153.8,1042v-3.8c0-11.3-9.2-20.5-20.5-20.5c0,0,0,0,0,0h-13.6"/>
		<path class="st7" d="M967.2,984.4c7-8.3,30.9-39,29.2-69c-1.8-32.1-21.1-49.1-21.1-49.1"/>
		<path class="st7" d="M1017.4,965.5c0,0,1.3,23.7,3.8,41.5"/>
		<line class="st7" x1="921.1" y1="1031.7" x2="921.1" y2="1041"/>
		<line class="st7" x1="932.2" y1="1031.7" x2="932.2" y2="1041"/>
		<line class="st7" x1="1131.7" y1="1031.7" x2="1131.7" y2="1041"/>
		<line class="st7" x1="1142.8" y1="1031.7" x2="1142.8" y2="1041"/>
		<circle class="st2" cx="1172.3" cy="1000.1" r="4.5"/>
		<path class="st2" d="M1147.7,966.9v-0.1l-27.1,7l26.7-6.8L1147.7,966.9z"/>
		<path class="st2" d="M1081.1,1018.1c-7.8,4-18.9,11.8-18,23.7h43.5l9.2-14.4c3-4.8,8.3-7.7,14-7.7h2.9l14.9-52.5l-0.2-0.2
			l-26.7,6.8l-25.6,32.8C1091.3,1011.4,1086.6,1015.3,1081.1,1018.1z"/>
		<path class="st24" d="M1017.5,883c0,0-12.1,41.9,27,57.8c19.8,8,36.3,1.9,47.7-6c-17.3-23-40.1-52.3-61.8-76.2
			c-5.4-6-11.6-11.3-18.2-15.9C1006.3,850.7,999.8,870.6,1017.5,883z"/>
		
			<ellipse transform="matrix(0.1602 -0.9871 0.9871 0.1602 -114.6273 1658.9718)" class="st24" cx="917.6" cy="896.8" rx="16.5" ry="16.6"/>
		<path class="st2" d="M1232.3,997.9h-6c-1.2,6.3,2.8,12.3,9.1,13.6c0.7,0.1,1.5,0.2,2.2,0.2c0.7,0,1.4-0.1,2.1-0.2
			c0.3-1.7,0.5-3.5,0.6-5.3c0.2-4.4-3.3-8.1-7.7-8.3C1232.5,997.9,1232.4,997.9,1232.3,997.9z"/>
		<line class="st7" x1="1256.1" y1="1031.7" x2="1256.1" y2="1040.8"/>
		<line class="st7" x1="1267.1" y1="1031.7" x2="1267.1" y2="1040.8"/>
		<path class="st16" d="M1195.6,1040.8c24.5-2.5,39.1-9.1,44.4-23.2"/>
	</g>
</g>
<g id="vase">
	<g id="vase_1_">
		<path class="st20" d="M218.7,958.2c6.6-19,27.4-29,46.4-22.4c10.5,3.7,18.7,11.9,22.4,22.4c4.9-13.9,17.6-23.6,32.4-24.4
			c-3.2-5.7-7-11.1-11.4-16L295.1,903c-8.4-9.5-10-23.2-4-34.3l11.2-20.8l0,0c-3.1,3.2-21.4,20.2-49,20.2s-45.9-17-49-20.2h0
			l11.2,20.8c6,11.2,4.3,24.9-4.1,34.3l-13.2,14.8c-4.4,4.9-8.2,10.3-11.5,16C201.3,934.8,213.9,944.4,218.7,958.2z"/>
		<path class="st20" d="M321.8,979.3c-15.5,0-29.3,9.8-34.4,24.4c-6.6-19-27.3-29-46.3-22.4c-10.5,3.7-18.8,11.9-22.4,22.4
			c-6.2-17.9-25.1-28-43.5-23.3c0.5,23.1,9.8,45.1,26,61.5h104.2c16.2-16.4,25.5-38.4,26-61.4C328.3,979.7,325,979.3,321.8,979.3z"
			/>
		<path class="st2" d="M253.3,868.1c27.6,0,45.9-17,49-20.2h-98C207.4,851,225.6,868.1,253.3,868.1z"/>
		<path class="st19" d="M218.7,1003.8c6.6-19,27.3-29,46.3-22.4c10.5,3.7,18.8,11.9,22.4,22.4c6.3-18.1,25.5-28.2,44-23.2
			c0.4-16.3-3.6-32.5-11.6-46.7c-14.7,0.8-27.5,10.4-32.4,24.4c-6.6-19-27.4-29-46.4-22.4c-10.5,3.7-18.7,11.9-22.4,22.4
			c-4.8-13.8-17.3-23.3-31.9-24.3c-8,14.2-12,30.3-11.6,46.6C193.5,975.7,212.4,985.9,218.7,1003.8L218.7,1003.8z"/>
		<path class="st7" d="M260.5,865.2c2-12.2,11.1-60.8,34-87.1"/>
		<path class="st7" d="M250,865.6c-0.1-13.9-1.6-82.2-15.1-122.9"/>
		
			<ellipse transform="matrix(0.9153 -0.4027 0.4027 0.9153 -300.1223 192.0313)" class="st2" cx="306.6" cy="809.6" rx="39.6" ry="8.9"/>
		
			<ellipse transform="matrix(0.5947 -0.804 0.804 0.5947 -430.8792 523.7354)" class="st2" cx="304" cy="689.2" rx="21.9" ry="7.7"/>
		
			<ellipse transform="matrix(0.9888 -0.1495 0.1495 0.9888 -119.8257 39.1387)" class="st2" cx="200.4" cy="816.4" rx="47.9" ry="8.5"/>
		<path class="st13" d="M183.4,756.6L183.4,756.6c8.5,4.8,11.6,15.6,6.8,24.1c-4.2,7.5-13.1,10.9-21.2,8.1v0.1
			c21.9,9.8,42.9,10.6,46.9,1.7S205.3,766.4,183.4,756.6z"/>
		<path class="st13" d="M248.1,685.3c-4.7-1.2-10.7,5.8-15.1,16.8c-5.3-13.3-13.1-22.1-18.3-20.4s-6.1,13.4-2.5,27.3
			c-10.1-6.1-19.1-8.2-22.1-4.4c-3.9,4.8,3.6,17.2,16.6,27.7c3.7,3,7.7,5.7,11.9,7.9c2.4-9.5,12-15.2,21.5-12.8
			c2.4,0.6,4.6,1.7,6.6,3.2c2-4.2,3.5-8.6,4.7-13.1C255.5,701.2,254.1,686.8,248.1,685.3z"/>
		<path class="st13" d="M349.8,758.9c-1.4-4.6-10.6-6-22.2-4c8.4-11.5,11.9-22.8,7.6-26.3s-14.7,1.9-24.5,12.3
			c-0.1-11.8-3.2-20.6-8-21.2c-6.1-0.8-12.7,12.1-14.7,28.8c-0.6,4.8-0.8,9.6-0.4,14.3c9.3-3,19.3,2.1,22.3,11.4
			c0.8,2.4,1,4.9,0.7,7.3c4.6-0.6,9.1-1.6,13.6-3C340.1,773.5,351.6,764.7,349.8,758.9z"/>
		<path class="st2" d="M304.3,766c-4.6-3.9-11-5.1-16.7-3.3c0.6,7.9,2.6,14,5.6,16.2c2.8,2.6,9.3,3.5,17.4,2.5
			C311.2,775.6,308.9,769.8,304.3,766z"/>
		<path class="st2" d="M230.1,727.6c-5.7,1.9-10.1,6.6-11.6,12.5c7,3.7,13.2,5.2,16.7,3.8c3.7-1,7.9-6.1,11.3-13.4
			C241.9,726.8,235.8,725.8,230.1,727.6z"/>
		<path class="st6" d="M185.3,786.3c-4.1-2.3-5.6-7.5-3.3-11.7c2-3.7,6.4-5.3,10.4-3.9c-0.5-5.9-3.9-11.1-9-14l-14.5,32.1
			C174.4,790.7,180.6,789.8,185.3,786.3z"/>
		<path class="st25" d="M181.6,775.2c-1.8,4.1-0.2,8.8,3.7,11c4.9-3.6,7.6-9.5,7-15.6C188.1,769.1,183.5,771.1,181.6,775.2z"/>
	</g>
</g>
<g id="top">
	<circle class="st26" cx="552.1" cy="124.9" r="64"/>
	<path class="st27" d="M948.1,150.6c4.4,6.3,1.4,13.3-4.6,16.3c-7,4-15,3-22-2c-9-7-16-23-4-29c8-4,14,9,24,10.4
		C944,147.5,946.3,148.9,948.1,150.6z"/>
	<circle class="st28" cx="599.1" cy="85.9" r="24.1"/>
	<circle class="st28" cx="943.2" cy="141" r="10.3"/>
</g>
</svg>
